<?xml version="1.0" encoding="UTF-8" standalone="no"?>
<svg
   xmlns:dc="http://purl.org/dc/elements/1.1/"
   xmlns:cc="http://creativecommons.org/ns#"
   xmlns:rdf="http://www.w3.org/1999/02/22-rdf-syntax-ns#"
   xmlns:svg="http://www.w3.org/2000/svg"
   xmlns="http://www.w3.org/2000/svg"
   xmlns:sodipodi="http://sodipodi.sourceforge.net/DTD/sodipodi-0.dtd"
   xmlns:inkscape="http://www.inkscape.org/namespaces/inkscape"
   inkscape:version="1.0 (4035a4f, 2020-05-01)"
   sodipodi:docname="Logo US Colomiers Football - 2019.svg"
   viewBox="0 0 502.89431 600"
   id="svg897"
   height="600"
   width="502.89432"
   version="1.1">
  <metadata
     id="metadata903">
    <rdf:RDF>
      <cc:Work
         rdf:about="">
        <dc:format>image/svg+xml</dc:format>
        <dc:type
           rdf:resource="http://purl.org/dc/dcmitype/StillImage" />
        <dc:title></dc:title>
      </cc:Work>
    </rdf:RDF>
  </metadata>
  <defs
     id="defs901" />
  <sodipodi:namedview
     inkscape:current-layer="svg897"
     inkscape:window-maximized="0"
     inkscape:window-y="0"
     inkscape:window-x="0"
     inkscape:cy="283.46459"
     inkscape:cx="237.58789"
     inkscape:zoom="0.70555555"
     showgrid="false"
     id="namedview899"
     inkscape:window-height="900"
     inkscape:window-width="1440"
     inkscape:pageshadow="2"
     inkscape:pageopacity="0"
     guidetolerance="10"
     gridtolerance="10"
     objecttolerance="10"
     borderopacity="1"
     bordercolor="#666666"
     pagecolor="#ffffff" />
  <path
     d="m 0,0 h 502.89431 v 286.65976 c 0,41.34792 -11.92604,101.01919 -61.77619,166.57342 C 403.56062,502.62317 344.40137,555.47411 251.19088,600 193.59701,580.79845 98.62037,526.04536 44.66178,434.97672 17.681047,389.43928 0,337.69291 0,282.27075 Z"
     style="fill:#23588c;fill-rule:evenodd;stroke-width:1.05833"
     id="path833" />
  <g
     transform="matrix(1.0583334,0,0,1.0583334,-63.552815,-145.49999)"
     id="g1002">
    <path
       id="path837"
       style="fill:#ffffff;fill-rule:evenodd"
       d="m 391.8798,526.6386 c -6.0616,-1.8614 -8.7607,-3.1675 -12.4738,-8.4974 -4.2192,-6.0574 -8.7365,-11.1231 -16.3646,-9.8849 -6.2132,1.0084 -12.8719,7.5625 -19.0991,15.0771 -0.8888,1.0726 -0.9953,0.6996 -1.3311,-0.574 -2.0396,-7.7327 1.4656,-25.8708 -2.948,-36.6143 -5.5443,-13.4971 -20.2568,-24.8783 -29.8603,-36.8293 -5.0299,-6.2588 -5.7541,-12.8161 -9.583,-19.4088 -0.927,-1.5959 -2.7759,-2.6396 -4.495,-2.3703 -1.7182,0.2693 -3.3103,1.8549 -3.721,3.654 -1.0479,4.5904 -1.787,10.4696 -2.6647,14.3097 -0.5247,2.2958 -1.4298,3.0052 -2.5387,4.1847 -1.4265,1.5173 -2.9749,3.1764 -3.4182,5.6262 -0.4991,2.761 1.9107,4.6252 1.7363,6.3746 -0.2526,2.534 -3.6852,4.1536 -4.0206,8.9351 -0.2911,4.1457 3.768,6.4913 3.6857,8.0737 -0.0595,1.1391 -1.4968,1.4512 -2.9666,3.2968 -2.2172,2.7838 -1.5191,6.3583 0.528,8.6393 1.5716,1.7516 2.6358,2.1902 2.52,3.8317 -0.0865,1.2326 0.0107,2.1517 -0.1107,3.6447 -0.1279,1.5698 0.333,3.9913 1.8577,5.2304 -13.0942,-5.2206 -24.3592,-5.9481 -35.2069,-9.243 -10.8477,-3.295 -24.5545,-9.0314 -32.7677,-11.7464 -2.4247,0.6312 -4.5262,2.4754 -3.0341,3.929 2.7131,2.6428 5.5379,4.8768 8.5542,7.4308 -0.8037,0.688 -1.7093,1.6336 -0.7861,3.8532 3.3769,8.1188 14.7995,24.7675 21.1931,31.5705 7.8374,8.3393 14.3222,16.632 22.3996,22.2601 6.2811,4.3768 11.7138,7.2336 17.8023,8.1016 -11.4235,10.0611 -23.3517,16.846 -33.1045,21.921 -12.1119,6.3029 -24.0299,9.9858 -35.6939,16.6599 -2.2075,1.2633 -4.4117,2.5233 -5.9648,4.6062 -2.0624,2.7651 -1.0358,6.4299 2.1726,7.775 1.8238,0.7647 4.0545,0.3493 7.3425,0.7721 3.8894,0.5005 4.2541,3.4066 7.8328,3.4913 1.7526,0.0414 4.5703,0.1935 7.0973,-0.3261 2.7801,-0.5721 7.81,-5.2601 10.571,-5.9582 2.7615,-0.6982 4.995,0.3874 7.7016,-0.3187 7.5416,-4.8108 12.3659,-8.9044 22.3601,-11.0486 13.3035,-2.855 30.177,-4.628 43.561,-8.1904 10.7221,-2.8541 16.8623,-4.8057 27.8253,-11.8682 7.1672,-4.6173 16.3158,-12.472 21.0894,-21.4489 1.8554,-3.4894 3.5052,-7.1569 4.7968,-10.8821 1.2917,-3.7248 1.9996,-7.283 4.2969,-10.0887 3.7987,-4.6391 11.7147,-5.1638 15.2292,-7.9504 z" />
    <path
       id="path839"
       style="fill:#23588c;fill-rule:evenodd"
       d="m 251.221,604.3819 c 8.0361,-5.1629 13.0594,-9.0407 23.0308,-11.1803 14.3381,-3.0768 29.2119,-4.3759 43.3736,-8.1453 3.8601,-1.0275 7.7407,-2.0833 11.4882,-3.474 5.4569,-2.0252 10.3296,-4.7513 15.2129,-7.8974 7.376,-4.7518 15.5669,-12.1347 19.7396,-19.9814 1.7633,-3.3164 3.3215,-6.7709 4.5522,-10.3212 1.3986,-4.0327 2.1847,-7.8923 4.9731,-11.298 0.3419,-0.4172 0.7089,-0.8135 1.0973,-1.1874 1.9093,-1.8401 4.2494,-3.0745 6.6866,-4.0625 0.187,-0.0758 0.3968,-0.1553 0.6242,-0.239 -2.0609,-1.4461 -3.86,-3.3555 -5.8378,-6.1946 -3.0284,-4.348 -6.5345,-9.2081 -12.4868,-8.2421 -5.7983,0.941 -13.1236,9.3956 -16.6883,13.6976 -1.2368,1.4921 -2.8652,2.4717 -4.9062,1.9098 -2.0716,-0.5707 -2.807,-2.1587 -3.2921,-3.9983 -0.82,-3.1098 -0.8484,-6.848 -0.834,-10.0579 0.0167,-3.881 0.167,-7.7583 0.1209,-11.6412 -0.0544,-4.5359 -0.3307,-10.19 -2.0689,-14.4213 -3.2852,-7.9964 -10.3002,-15.4101 -16.2199,-21.5917 -4.448,-4.6447 -9.0342,-9.2472 -13.0654,-14.2631 -2.7638,-3.4391 -4.4438,-7.0499 -6.0397,-11.1175 -1.1749,-2.9935 -2.2582,-5.9899 -3.8801,-8.7825 -0.0832,-0.1437 -0.3,-0.3614 -0.4819,-0.4279 -0.1916,0.1149 -0.4176,0.4153 -0.4609,0.606 -1.08,4.7304 -1.5866,9.5919 -2.6652,14.3106 -0.653,2.8578 -1.6335,4.0136 -3.5122,6.0118 -0.9418,1.0019 -2.1535,2.2149 -2.4084,3.6215 -0.0437,0.2418 0.287,0.8856 0.3875,1.086 0.8353,1.6596 1.5888,3.0099 1.3926,4.9774 -0.3884,3.8963 -3.7746,5.4513 -4.0108,8.8197 -0.1642,2.3405 3.8856,4.2406 3.6898,8.003 -0.0479,0.9219 -0.0595,0.9475 -0.4056,1.7619 -0.8772,2.0661 -2.2549,2.3336 -3.4163,3.7922 -0.887,1.113 -0.5019,2.5549 0.3781,3.5354 1.9619,2.1866 3.7666,3.2694 3.521,6.7495 -0.086,1.2242 -0.0125,2.4419 -0.1139,3.6885 -0.0451,0.5521 0.1437,3.1638 0.7251,3.8666 2.3726,2.867 9.2877,6.2657 14.6422,10.5095 -11.3133,-4.0154 -23.5875,-8.0523 -35.3185,-10.6388 -5.2318,-1.154 -10.5147,-2.1066 -15.6929,-3.4918 -0.9359,-0.2502 -1.868,-0.5148 -2.7945,-0.7963 -4.2913,-1.3032 -8.536,-2.8112 -12.7445,-4.3587 -4.4927,-1.6521 -8.9909,-3.4284 -13.5078,-5.0931 0.9047,0.7544 1.8112,1.5056 2.7084,2.2652 l 3.5443,3.001 -3.1052,2.6577 c 0.9973,2.3284 2.3196,4.6648 3.5978,6.8355 1.787,3.035 3.7052,6.0076 5.6871,8.9188 3.2578,4.7853 7.0444,10.1017 11.0091,14.3204 6.7611,7.1941 13.6882,16.0869 21.7791,21.7238 4.8536,3.3824 10.1426,6.582 16.1,7.4313 l 8.4927,1.2107 -6.4378,5.6704 c -10.3533,9.1184 -21.7015,16.1172 -33.8925,22.461 -11.6174,6.0458 -24.2019,10.0877 -35.5552,16.5841 -1.6173,0.9257 -3.621,2.0117 -4.7592,3.5387 -0.5391,0.7224 -0.2791,1.4252 0.5321,1.7652 0.4121,0.173 1.3,0.193 1.7405,0.2098 1.5489,0.0576 3.0317,0.0883 4.5778,0.287 3.0322,0.3902 4.1768,1.4442 6.4685,3.0926 0.3479,0.2502 0.5219,0.3572 0.9531,0.3674 2.0358,0.0484 4.1954,0.168 6.2006,-0.2442 0.886,-0.2246 3.1033,-1.8051 3.9061,-2.353 1.8954,-1.2936 4.2717,-3.0043 6.4988,-3.5676 1.8991,-0.48 3.507,-0.3874 5.4187,-0.2442 0.5614,0.0424 1.174,0.0903 1.7521,0.0247 z" />
  </g>
  <g
     transform="matrix(1.0583334,0,0,1.0583334,-63.552815,-145.49999)"
     id="g991">
    <path
       id="path841"
       style="fill:#ffffff;fill-rule:evenodd"
       d="m 259.0724,201.6377 h 4.1396 v -24.4239 h -3.7601 l -7.382,6.1407 2.4145,2.8633 4.588,-4.2434 z" />
    <path
       id="path843"
       style="fill:#ffffff;fill-rule:evenodd"
       d="m 284.0828,201.6377 6.2438,-9.8314 c 0.4545,-0.7075 0.8508,-1.4145 1.1903,-2.1159 0.3391,-0.7074 0.6037,-1.4316 0.7935,-2.1847 0.1954,-0.7474 0.2875,-1.5465 0.293,-2.3921 -0.006,-1.2991 -0.2186,-2.455 -0.6381,-3.4838 -0.4256,-1.0238 -1.0177,-1.8973 -1.794,-2.6164 -0.7703,-0.7186 -1.6903,-1.2647 -2.748,-1.6442 -1.0582,-0.3735 -2.2307,-0.5693 -3.5131,-0.5693 -1.2591,0.006 -2.4145,0.2014 -3.4671,0.5926 -1.0577,0.3907 -1.9777,0.9483 -2.7535,1.6786 -0.7824,0.7302 -1.3856,1.6098 -1.8173,2.6331 -0.4311,1.0237 -0.6493,2.1735 -0.6553,3.4443 0.006,1.0693 0.1842,2.0698 0.5404,3.0065 0.3568,0.9373 0.8624,1.7652 1.5182,2.4838 0.6493,0.7131 1.4256,1.2768 2.3224,1.6847 0.8972,0.4084 1.8861,0.6154 2.9671,0.621 0.2814,0 0.5632,-0.0173 0.8507,-0.0461 0.2874,-0.0288 0.5577,-0.0744 0.8051,-0.1377 0.247,-0.0632 0.454,-0.1381 0.621,-0.2302 l 0.0688,0.0693 -5.8643,9.0379 z m 4.174,-16.4548 c -0.006,0.6149 -0.1209,1.1902 -0.3507,1.7302 -0.2298,0.5349 -0.546,1.0066 -0.9544,1.4145 -0.4084,0.4084 -0.8796,0.7247 -1.4145,0.9544 -0.5405,0.2303 -1.1154,0.3452 -1.7303,0.3507 -0.6153,-0.006 -1.1902,-0.1204 -1.7307,-0.3507 -0.5349,-0.2297 -1.0061,-0.546 -1.4144,-0.9544 -0.408,-0.4079 -0.7242,-0.8796 -0.9545,-1.4145 -0.2298,-0.54 -0.3446,-1.1153 -0.3507,-1.7302 0.006,-0.6154 0.1209,-1.1959 0.3507,-1.7308 0.2303,-0.5344 0.5465,-1.006 0.9545,-1.4144 0.4083,-0.4079 0.8795,-0.7242 1.4144,-0.9545 0.5405,-0.2297 1.1154,-0.3446 1.7307,-0.3507 0.6149,0.006 1.1898,0.121 1.7303,0.3507 0.5349,0.2303 1.0061,0.5466 1.4145,0.9545 0.4084,0.4084 0.7246,0.88 0.9544,1.4144 0.2298,0.5349 0.3451,1.1154 0.3507,1.7308 z" />
    <path
       id="path845"
       style="fill:#ffffff;fill-rule:evenodd"
       d="m 304.8842,190.7714 h 1.0005 c 0.6381,-0.006 1.2763,0.04 1.9089,0.1377 0.6321,0.0921 1.2186,0.2702 1.7419,0.5349 0.5288,0.2586 0.9544,0.6381 1.2763,1.1325 0.3163,0.4889 0.4828,1.1326 0.4888,1.9206 -0.006,0.5688 -0.1149,1.0921 -0.3279,1.5577 -0.2186,0.4716 -0.5172,0.8739 -0.8967,1.2135 -0.3796,0.3335 -0.8163,0.5977 -1.3052,0.7819 -0.4944,0.1837 -1.0177,0.2758 -1.5754,0.2758 -1.0981,-0.006 -1.9721,-0.2875 -2.6159,-0.8335 -0.6442,-0.5521 -1.0981,-1.334 -1.3512,-2.3401 l -4.4154,1.1726 c 0.3679,1.3512 0.9544,2.4494 1.7591,3.2945 0.8051,0.8451 1.7768,1.4605 2.9094,1.8517 1.1326,0.3907 2.3684,0.586 3.714,0.5805 1.0982,0 2.1387,-0.161 3.122,-0.4717 0.9888,-0.3158 1.8628,-0.7758 2.633,-1.3856 0.7647,-0.6149 1.3684,-1.3684 1.8112,-2.2591 0.4428,-0.8973 0.667,-1.9261 0.6787,-3.0936 0,-1.0116 -0.1842,-1.9317 -0.5466,-2.7712 -0.3562,-0.8391 -0.8911,-1.5349 -1.5981,-2.0926 -0.707,-0.5521 -1.581,-0.9084 -2.6159,-1.0694 v -0.0693 c 0.8679,-0.2242 1.6098,-0.6032 2.2307,-1.1381 0.621,-0.5349 1.1038,-1.1787 1.4373,-1.9317 0.3335,-0.7535 0.5,-1.5698 0.506,-2.4494 -0.006,-1.0809 -0.2186,-2.0237 -0.6325,-2.84 -0.414,-0.8108 -0.9833,-1.4894 -1.7019,-2.0354 -0.7242,-0.5466 -1.5582,-0.9605 -2.495,-1.2308 -0.9433,-0.2758 -1.9377,-0.4139 -3.0014,-0.4139 -0.9029,0 -1.7652,0.1037 -2.5871,0.3107 -0.8223,0.207 -1.5814,0.5233 -2.2712,0.9544 -0.6958,0.4256 -1.2935,0.9717 -1.7996,1.6326 -0.5116,0.6559 -0.9028,1.4433 -1.173,2.3461 l 4.3815,1.1726 c 0.2009,-0.5633 0.4828,-1.0461 0.8391,-1.4489 0.3623,-0.4023 0.7818,-0.707 1.2651,-0.9195 0.4772,-0.213 1,-0.3224 1.5521,-0.3224 0.6842,0.006 1.288,0.1438 1.8112,0.4201 0.5173,0.2702 0.9256,0.6497 1.2247,1.127 0.2931,0.4828 0.4428,1.0344 0.4484,1.6614 -0.006,0.7358 -0.1437,1.3224 -0.4084,1.7707 -0.2642,0.4428 -0.6265,0.7763 -1.0809,0.9945 -0.4484,0.2246 -0.9601,0.3739 -1.5233,0.4488 -0.5638,0.0689 -1.1442,0.1033 -1.748,0.0977 h -1.0693 z" />
    <path
       id="path847"
       style="fill:#ffffff;fill-rule:evenodd"
       d="m 323.1325,201.6377 h 16.3511 v -3.7257 h -11.3147 l 7.5546,-7.0029 c 0.7303,-0.661 1.3801,-1.3508 1.9433,-2.0699 0.5638,-0.7125 1.0066,-1.4888 1.3224,-2.3284 0.3223,-0.8335 0.4889,-1.7591 0.4944,-2.7768 -0.006,-1.1731 -0.2125,-2.1963 -0.6149,-3.0647 -0.4083,-0.868 -0.9716,-1.5866 -1.6902,-2.1615 -0.7247,-0.5749 -1.5582,-1.0005 -2.5127,-1.2823 -0.9544,-0.2875 -1.9777,-0.4256 -3.0819,-0.4256 -1.1093,0 -2.1326,0.1497 -3.0698,0.4428 -0.9433,0.2935 -1.7652,0.7302 -2.4838,1.3112 -0.7131,0.5805 -1.2935,1.2991 -1.7308,2.1614 -0.4428,0.8568 -0.713,1.8517 -0.8223,2.9843 l 4.3466,0.3446 c 0.0982,-0.6725 0.3107,-1.253 0.6442,-1.7474 0.3335,-0.4945 0.7703,-0.8801 1.2991,-1.1503 0.5293,-0.2758 1.1331,-0.414 1.8168,-0.414 0.6442,0 1.2307,0.1326 1.7652,0.3856 0.5349,0.2586 0.966,0.621 1.2879,1.1038 0.3279,0.4772 0.4944,1.0465 0.5005,1.7191 -0.006,0.4195 -0.0805,0.8219 -0.2303,1.2014 -0.1553,0.3851 -0.3562,0.7475 -0.6037,1.087 -0.247,0.3447 -0.5172,0.6665 -0.8107,0.9772 -0.293,0.3047 -0.5865,0.5977 -0.874,0.874 l -9.4863,9.1761 z" />
  </g>
  <g
     transform="matrix(1.0583334,0,0,1.0583334,-63.552815,-145.49999)"
     id="g985">
    <path
       d="m 142.6063,403.1277 h 4.7285 v -11.0324 h 11.7077 v -4.2777 h -11.7077 v -6.9797 h 12.4208 v -4.2778 h -17.1493 z"
       style="fill:#ffffff;fill-rule:evenodd"
       id="path849" />
    <path
       d="m 178.856,389.9562 c 0.0126,2.0829 0.3563,3.9652 1.0443,5.6602 0.6818,1.6949 1.6512,3.1521 2.9084,4.3717 1.2507,1.2196 2.7266,2.1577 4.4406,2.8145 1.707,0.6628 3.5898,0.9944 5.641,1.0005 2.0829,-0.0438 3.9839,-0.4066 5.7099,-1.0819 1.7261,-0.6819 3.215,-1.6321 4.4718,-2.8643 1.2633,-1.226 2.2331,-2.6893 2.921,-4.3843 0.6879,-1.7009 1.0381,-3.5838 1.0442,-5.6661 -0.006,-2.1392 -0.3563,-4.0653 -1.0442,-5.7914 -0.6879,-1.72 -1.6577,-3.1958 -2.921,-4.4219 -1.2568,-1.2256 -2.7457,-2.1577 -4.4718,-2.7954 -1.726,-0.6382 -3.627,-0.9447 -5.7099,-0.9135 -2.0512,0.007 -3.934,0.3381 -5.641,1.0009 -1.714,0.6628 -3.1899,1.6075 -4.4406,2.8391 -1.2572,1.2322 -2.2266,2.7145 -2.9084,4.4406 -0.688,1.7261 -1.0317,3.6527 -1.0443,5.7913 z m 4.9532,-0.3 c 0.006,-1.3321 0.2251,-2.5703 0.6567,-3.715 0.4317,-1.1446 1.0443,-2.1516 1.8452,-3.0145 0.8065,-0.8693 1.7633,-1.5386 2.8829,-2.0265 1.1135,-0.4814 2.3577,-0.7317 3.734,-0.7377 1.3819,0.006 2.6391,0.2563 3.7587,0.7377 1.1196,0.4879 2.0824,1.1572 2.8894,2.0265 0.8065,0.8629 1.4195,1.8699 1.8512,3.0145 0.4377,1.1447 0.6502,2.3829 0.6567,3.715 -0.007,1.4261 -0.219,2.7331 -0.6567,3.9341 -0.4317,1.1944 -1.0447,2.2386 -1.8512,3.127 -0.807,0.8879 -1.7698,1.5759 -2.8894,2.0638 -1.1196,0.4879 -2.3768,0.7381 -3.7587,0.7442 -1.3763,-0.006 -2.6205,-0.2563 -3.734,-0.7442 -1.1196,-0.4879 -2.0764,-1.1759 -2.8829,-2.0638 -0.8009,-0.8884 -1.4135,-1.9326 -1.8452,-3.127 -0.4316,-1.201 -0.6502,-2.508 -0.6567,-3.9341 z"
       style="fill:#ffffff;fill-rule:evenodd"
       id="path851" />
    <path
       d="m 226.6256,389.9562 c 0.0125,2.0829 0.3563,3.9652 1.0442,5.6602 0.6819,1.6949 1.6512,3.1521 2.9084,4.3717 1.2507,1.2196 2.7266,2.1577 4.4406,2.8145 1.707,0.6628 3.5898,0.9944 5.6411,1.0005 2.0828,-0.0438 3.9838,-0.4066 5.7099,-1.0819 1.7261,-0.6819 3.2149,-1.6321 4.4717,-2.8643 1.2633,-1.226 2.2331,-2.6893 2.921,-4.3843 0.6879,-1.7009 1.0382,-3.5838 1.0442,-5.6661 -0.006,-2.1392 -0.3563,-4.0653 -1.0442,-5.7914 -0.6879,-1.72 -1.6577,-3.1958 -2.921,-4.4219 -1.2568,-1.2256 -2.7456,-2.1577 -4.4717,-2.7954 -1.7261,-0.6382 -3.6271,-0.9447 -5.7099,-0.9135 -2.0513,0.007 -3.9341,0.3381 -5.6411,1.0009 -1.714,0.6628 -3.1899,1.6075 -4.4406,2.8391 -1.2572,1.2322 -2.2265,2.7145 -2.9084,4.4406 -0.6879,1.7261 -1.0317,3.6527 -1.0442,5.7913 z m 4.9531,-0.3 c 0.006,-1.3321 0.2251,-2.5703 0.6568,-3.715 0.4316,-1.1446 1.0442,-2.1516 1.8451,-3.0145 0.8066,-0.8693 1.7633,-1.5386 2.8829,-2.0265 1.1135,-0.4814 2.3577,-0.7317 3.734,-0.7377 1.3819,0.006 2.6392,0.2563 3.7587,0.7377 1.1196,0.4879 2.0824,1.1572 2.8894,2.0265 0.8065,0.8629 1.4196,1.8699 1.8512,3.0145 0.4377,1.1447 0.6503,2.3829 0.6568,3.715 -0.006,1.4261 -0.2191,2.7331 -0.6568,3.9341 -0.4316,1.1944 -1.0447,2.2386 -1.8512,3.127 -0.807,0.8879 -1.7698,1.5759 -2.8894,2.0638 -1.1195,0.4879 -2.3768,0.7381 -3.7587,0.7442 -1.3763,-0.006 -2.6205,-0.2563 -3.734,-0.7442 -1.1196,-0.4879 -2.0763,-1.1759 -2.8829,-2.0638 -0.8009,-0.8884 -1.4135,-1.9326 -1.8451,-3.127 -0.4317,-1.201 -0.6503,-2.508 -0.6568,-3.9341 z"
       style="fill:#ffffff;fill-rule:evenodd"
       id="path853" />
    <path
       d="m 280.1366,403.1277 h 4.728 v -22.2898 h 8.143 v -4.2778 h -21.014 v 4.2778 h 8.143 z"
       style="fill:#ffffff;fill-rule:evenodd"
       id="path855" />
    <path
       d="m 311.9951,403.1277 h 9.569 c 1.0131,0 2.0075,-0.0749 2.9769,-0.2316 0.9758,-0.1624 1.8828,-0.4186 2.733,-0.7754 0.8573,-0.3502 1.6075,-0.8256 2.2582,-1.407 0.6503,-0.5879 1.1568,-1.307 1.5257,-2.1577 0.3693,-0.8508 0.5567,-1.8578 0.5632,-3.0085 -0.007,-1.1507 -0.2567,-2.1824 -0.7446,-3.0959 -0.4875,-0.9191 -1.1633,-1.6698 -2.0261,-2.2512 -0.8568,-0.5819 -1.8452,-0.9381 -2.9708,-1.0698 v -0.0749 c 0.9195,-0.2753 1.7261,-0.6818 2.414,-1.207 0.6879,-0.5316 1.2261,-1.1819 1.6135,-1.9512 0.3879,-0.7693 0.5819,-1.6572 0.5879,-2.6582 -0.006,-0.9693 -0.1562,-1.82 -0.4628,-2.5517 -0.3,-0.7377 -0.719,-1.3698 -1.2446,-1.8889 -0.5312,-0.5251 -1.1442,-0.9502 -1.8322,-1.2819 -0.6944,-0.3316 -1.4321,-0.5753 -2.214,-0.7255 -0.7819,-0.1563 -1.5823,-0.2312 -2.3893,-0.2312 h -10.357 z m 4.7285,-22.515 h 3.9024 c 1.7763,0 3.0773,0.2814 3.9089,0.8503 0.8317,0.5633 1.2447,1.42 1.2321,2.5642 0,0.6694 -0.1753,1.2512 -0.5256,1.7512 -0.3502,0.5005 -0.8753,0.8884 -1.5758,1.1633 -0.7005,0.2814 -1.5759,0.4191 -2.6266,0.4256 h -4.3154 z m 0,10.8073 h 4.5405 c 1.2759,-0.007 2.3266,0.1125 3.1582,0.3563 0.8382,0.2442 1.4573,0.6381 1.8638,1.1884 0.4065,0.5502 0.6065,1.2884 0.6065,2.2075 -0.006,0.6944 -0.1311,1.2758 -0.3688,1.7451 -0.2437,0.4689 -0.5693,0.8507 -0.9758,1.1382 -0.4066,0.2879 -0.8629,0.5005 -1.3694,0.6507 -0.507,0.1498 -1.0261,0.2498 -1.5572,0.3 -0.5382,0.0502 -1.0508,0.0749 -1.5452,0.0688 h -4.3526 z"
       style="fill:#ffffff;fill-rule:evenodd"
       id="path857" />
    <path
       d="m 349.1076,403.1277 h 5.2908 l 2.4019,-6.0792 h 11.5203 l 2.4763,6.0792 h 5.4039 l -11.4454,-26.5676 h -4.0899 z m 9.3063,-10.1319 4.1652,-10.8072 4.0903,10.8072 z"
       style="fill:#ffffff;fill-rule:evenodd"
       id="path859" />
    <path
       d="m 394.9259,403.1277 h 16.0236 v -4.2778 h -11.2951 v -22.2898 h -4.7285 z"
       style="fill:#ffffff;fill-rule:evenodd"
       id="path861" />
    <path
       d="m 430.1616,403.1277 h 16.0237 v -4.2778 h -11.2952 v -22.2898 h -4.7285 z"
       style="fill:#ffffff;fill-rule:evenodd"
       id="path863" />
  </g>
  <g
     transform="matrix(1.0583334,0,0,1.0583334,-63.552815,-145.49999)"
     id="g975">
    <path
       d="m 146.0129,263.8297 v 42.8445 c 0,5.3553 3.7265,11.8457 10.7418,11.8457 7.9389,0 10.9689,-6.2933 10.9689,-11.6114 v -43.0788 c 0,-7.1882 -4.8381,-11.5124 -10.9689,-11.5124 -6.241,0 -10.7418,4.74 -10.7418,11.5124 z m -12.6349,7.5165 c 0,-9.2628 1.4126,-17.3381 6.6128,-23.0019 3.5571,-3.8749 8.8928,-6.2598 16.7639,-6.2598 8.4549,0 13.9887,2.775 17.5346,7.196 4.56,5.6844 5.8435,13.3205 5.8435,22.0657 v 28.7977 c 0,9.481 -1.4951,17.6961 -7.0391,23.1687 -3.5522,3.5068 -8.7768,5.6281 -16.339,5.6281 -7.1182,0 -12.1641,-1.8705 -15.6926,-5.0041 -6.0832,-5.4016 -7.6841,-13.923 -7.6841,-23.7927 z"
       style="fill:#ffffff;fill-rule:evenodd"
       id="path866" />
    <path
       d="m 93.98,264.2216 0.1305,42.1922 c 0.0165,5.3487 2.8126,11.8458 9.8277,11.8458 7.9391,0 10.2018,-6.2934 10.1856,-11.6116 l -0.0313,-10.0712 h 13.2238 v 3.5672 c 0,9.4806 -1.4953,17.696 -7.039,23.1687 -3.5521,3.5064 -8.7768,5.6281 -16.3391,5.6281 -7.118,0 -12.0358,-2.2635 -15.5618,-5.3949 -6.0808,-5.3991 -7.8148,-14.0531 -7.8148,-23.9228 v -28.5374 c 0,-9.2626 1.8073,-16.6884 7.0046,-22.3494 3.5541,-3.8721 8.501,-6.6518 16.372,-6.6518 8.455,0 13.9889,2.7752 17.5346,7.196 4.4307,5.5233 5.7681,13.151 5.8401,21.587 h -13.3 l -0.0196,-6.6459 c -0.0209,-7.1882 -4.0547,-11.5123 -10.1857,-11.5123 -6.2409,0 -9.8276,4.74 -9.8276,11.5123 z"
       style="fill:#ffffff;fill-rule:evenodd"
       id="path868" />
    <path
       d="m 239.4594,263.8297 v 42.1935 c 0,5.3525 2.7426,12.4967 10.7418,12.4967 7.9991,0 10.9689,-6.9443 10.9689,-12.2624 v -42.4278 c 0,-7.1882 -4.8381,-11.5124 -10.9689,-11.5124 -6.241,0 -10.7418,4.7423 -10.7418,11.5124 z m -12.6349,7.5165 c 0,-9.2628 1.4126,-17.3381 6.6128,-23.0019 3.5572,-3.8749 8.8928,-6.2598 16.7639,-6.2598 8.4549,0 13.9887,2.775 17.5346,7.196 4.56,5.6844 5.8435,13.3205 5.8435,22.0657 v 28.7977 c 0,9.481 -1.4951,17.6961 -7.039,23.1687 -3.5523,3.5068 -8.7769,5.6281 -16.3391,5.6281 -7.1182,0 -12.1641,-1.8705 -15.6926,-5.0041 -6.0832,-5.4016 -7.6841,-13.923 -7.6841,-23.7927 z"
       style="fill:#ffffff;fill-rule:evenodd"
       id="path870" />
    <path
       d="m 189.1073,328.2137 v -85.6136 h 13.7938 v 75.1047 h 20.5667 v 10.5089 z"
       style="fill:#ffffff;fill-rule:evenodd"
       id="path872" />
    <path
       d="m 283.7927,328.2789 v -85.8746 h 17.0287 l 11.8716,64.3341 11.0556,-64.3341 h 17.3853 v 85.8746 h -12.2995 l -0.0676,-67.6885 -11.5455,67.6885 h -9.3559 l -11.6705,-67.6885 -0.0379,67.6885 z"
       style="fill:#ffffff;fill-rule:evenodd"
       id="path874" />
    <path
       d="m 366.1584,328.2789 h -12.8799 v -85.8746 h 12.8799 z"
       style="fill:#ffffff;fill-rule:evenodd"
       id="path876" />
    <path
       d="m 377.4195,328.2789 v -85.6135 h 34.6508 v 10.7726 h -21.2486 v 25.5028 H 406.15 v 10.4287 h -15.3283 v 28.1368 h 21.3081 v 10.7726 z"
       style="fill:#ffffff;fill-rule:evenodd"
       id="path878" />
    <path
       d="m 431.3619,279.1061 h 3.9834 c 7.8407,0 13.05,-4.0918 13.05,-13.3461 0,-8.1838 -5.0036,-12.6356 -11.8468,-12.6356 h -5.1866 z m -13.1411,49.1728 v -85.8746 h 14.9727 c 13.4176,0 28.1877,4.0972 28.1877,23.7884 0,12.235 -6.5832,18.1414 -10.7253,19.56 l 13.6011,42.5262 H 451.099 L 438.7052,288.841 h -7.3433 v 39.4379 z"
       style="fill:#ffffff;fill-rule:evenodd"
       id="path880" />
    <path
       d="m 467.4689,303.3982 13.1491,-3.5826 c 0,3.931 1.0058,12.4767 5.4474,16.3822 1.4802,1.3018 3.5758,2.0821 5.8323,2.017 5.9735,-0.1723 8.9381,-4.5549 8.9381,-9.2611 0,-6.7038 -4.4288,-10.8371 -9.7564,-15.0172 -6.4459,-5.0576 -12.3541,-8.6714 -17.6156,-14.9501 -3.7108,-4.4286 -5.7686,-8.9619 -5.7686,-16.6211 0,-11.5345 8.8783,-20.3997 23.6871,-20.3997 12.6533,0 21.3546,10.6791 21.8188,22.6362 l -12.1465,3.1381 c -0.2679,-4.9865 -2.3181,-15.3031 -11.3695,-15.3031 -4.2463,0 -8.8436,2.2165 -9.1034,8.1281 -0.131,2.9835 0.5371,6.0351 2.609,8.856 6.2195,8.4671 19.166,14.4242 24.663,22.2694 3.6155,5.1601 5.6078,11.0084 5.6078,17.2634 0,5.9233 -1.9189,10.7423 -5.737,14.4705 -3.8072,3.7173 -9.789,5.5952 -15.8268,5.5952 -5.5364,0 -11.0047,-1.6822 -14.8886,-4.8401 -5.3229,-4.3277 -8.2475,-11.4308 -9.5402,-20.7811 z"
       style="fill:#ffffff;fill-rule:evenodd"
       id="path882" />
  </g>
  <g
     transform="matrix(1.0583334,0,0,1.0583334,-63.552815,-145.49999)"
     id="g998">
    <path
       id="path835"
       style="fill:#ffffff;fill-rule:evenodd"
       d="m 297.3515,678.0828 c 61.9424,-30.7222 122.3764,-71.0604 164.4793,-126.4278 31.3747,-41.2586 55.2548,-92.858 55.2548,-145.4081 v -53.3651 h -2.7908 v 53.3651 c 0,51.9631 -23.7154,102.9927 -54.6855,143.7188 C 417.9497,604.7503 358.2627,644.6326 297.2254,675.0292 226.7949,646.9039 160.4407,601.4842 121.1705,535.2049 97.5601,495.3546 81.6784,450.9233 81.6784,404.1933 l 0.0479,-51.3115 h -2.7908 l -0.0479,51.311 c 0,47.2156 15.9813,92.0944 39.8819,132.4344 36.4906,61.5885 99.1052,109.9506 178.582,141.4556 z M 517.0856,222.9661 V 155.1552 H 79.1202 l -0.0633,67.8109 h 2.7908 l 0.0604,-65.0202 h 432.3867 v 65.0202 z" />
    <path
       id="path885"
       style="fill:#ffffff;fill-rule:evenodd"
       d="M 501.3875,182.2395 H 354.9319 v 2.7908 h 146.4556 z" />
    <path
       id="path887"
       style="fill:#ffffff;fill-rule:evenodd"
       d="M 479.9693,194.3329 H 354.9319 v 2.7907 h 125.0374 z" />
    <path
       id="path890"
       style="fill:#ffffff;fill-rule:evenodd"
       d="M 93.9954,182.2395 H 240.451 v 2.7908 H 93.9954 Z" />
    <path
       id="path892"
       style="fill:#ffffff;fill-rule:evenodd"
       d="M 115.4136,194.3329 H 240.451 v 2.7907 H 115.4136 Z" />
  </g>
</svg>
